<svg width="30" height="30" viewBox="0 0 30 30" fill="none" xmlns="http://www.w3.org/2000/svg">
<rect width="30" height="30" rx="15" fill="#F7931A"/>
<path fill-rule="evenodd" clip-rule="evenodd" d="M13.7088 16.2347L16.4109 15.3538C17.672 14.9427 18.6966 15.5388 19.0581 16.7495C19.3419 17.6201 19.206 18.5281 18.5833 19.0632C18.3523 19.2713 17.9717 19.4286 17.6415 19.5362L15.0594 20.3779L13.7088 16.2347ZM15.2901 9.6742C15.9284 9.79828 16.3944 10.3107 16.6195 11.0011C16.9718 12.082 16.586 13.0382 15.5052 13.3905L13.0432 14.1931L11.8589 10.5602L14.0206 9.85548C14.501 9.69889 14.941 9.62195 15.2901 9.6742ZM18.5571 21.5296C19.0139 22.9307 19.2422 23.6313 19.2422 23.6313C19.2422 23.6313 18.7718 23.7846 17.8311 24.0913L17.1459 21.9896L15.6748 22.4692C16.1315 23.8703 16.3599 24.5709 16.3599 24.5709C16.3599 24.5709 15.8895 24.7243 14.9488 25.0309L14.2637 22.9292C12.3821 23.5426 11.4414 23.8492 11.4414 23.8492C11.4414 23.8492 11.2326 23.2088 10.815 21.9278L11.6857 21.644C12.136 21.4972 12.3488 21.0292 12.2118 20.6089L9.44193 12.1121C9.29512 11.6617 8.8272 11.449 8.4069 11.586C7.8264 11.7752 7.53616 11.8698 7.53616 11.8698C7.53616 11.8698 7.32735 11.2293 6.90974 9.94828L9.73203 9.02823C9.27528 7.62712 9.0469 6.92657 9.0469 6.92657C9.0469 6.92657 9.51727 6.77323 10.458 6.46655L11.1431 8.56822L12.6143 8.08864C12.1575 6.68753 11.9291 5.98697 11.9291 5.98697C11.9291 5.98697 12.3995 5.83363 13.3403 5.52694L14.0352 7.65858C14.7656 7.45374 15.3654 7.35787 16.0142 7.4121C17.4317 7.48136 18.6842 8.36841 19.1932 9.9297C19.6238 11.2508 19.3756 12.5274 18.4507 13.4599C20.1783 13.4615 21.3093 14.5873 21.7889 16.0585C22.3755 17.9598 21.5647 19.752 20.2201 20.7218C19.6784 21.0976 19.1576 21.3338 18.5571 21.5296Z" fill="white"/>
</svg>
