<svg width="40" height="40" viewBox="0 0 40 40" fill="none" xmlns="http://www.w3.org/2000/svg">
<path fill-rule="evenodd" clip-rule="evenodd" d="M14.8818 7.4505C12.7631 7.2137 10.5699 7.2137 8.45119 7.4505C7.93637 7.50803 7.53038 7.91568 7.47247 8.41078C7.21946 10.574 7.21946 12.7594 7.47247 14.9226C7.53038 15.4177 7.93637 15.8253 8.45119 15.8829C10.5699 16.1197 12.7631 16.1197 14.8818 15.8829C15.3966 15.8253 15.8026 15.4177 15.8605 14.9226C16.1135 12.7594 16.1135 10.574 15.8605 8.41078C15.8026 7.91568 15.3966 7.50803 14.8818 7.4505ZM8.17351 4.96596C10.4768 4.70854 12.8562 4.70854 15.1594 4.96596C16.8108 5.15053 18.1482 6.45051 18.3436 8.12036C18.6191 10.4766 18.6191 12.8568 18.3436 15.213C18.1482 16.8829 16.8108 18.1828 15.1594 18.3674C12.8562 18.6248 10.4768 18.6248 8.17351 18.3674C6.52211 18.1828 5.1847 16.8829 4.9894 15.213C4.71382 12.8568 4.71382 10.4766 4.9894 8.12036C5.1847 6.45051 6.52211 5.15053 8.17351 4.96596Z" fill="white"/>
<path fill-rule="evenodd" clip-rule="evenodd" d="M14.8818 24.1172C12.7631 23.8804 10.5699 23.8804 8.45119 24.1172C7.93637 24.1747 7.53038 24.5823 7.47247 25.0774C7.21946 27.2407 7.21946 29.426 7.47247 31.5893C7.53038 32.0844 7.93637 32.492 8.45119 32.5496C10.5699 32.7863 12.7631 32.7863 14.8818 32.5496C15.3966 32.492 15.8026 32.0844 15.8605 31.5893C16.1135 29.426 16.1135 27.2407 15.8605 25.0774C15.8026 24.5823 15.3966 24.1747 14.8818 24.1172ZM8.17351 21.6326C10.4768 21.3752 12.8562 21.3752 15.1594 21.6326C16.8108 21.8172 18.1482 23.1172 18.3436 24.787C18.6191 27.1432 18.6191 29.5235 18.3436 31.8797C18.1482 33.5495 16.8108 34.8495 15.1594 35.0341C12.8562 35.2915 10.4768 35.2915 8.17351 35.0341C6.52211 34.8495 5.1847 33.5495 4.9894 31.8797C4.71382 29.5235 4.71382 27.1432 4.9894 24.787C5.1847 23.1172 6.52211 21.8172 8.17351 21.6326Z" fill="white"/>
<path fill-rule="evenodd" clip-rule="evenodd" d="M31.5484 7.4505C29.4297 7.2137 27.2366 7.2137 25.1179 7.4505C24.603 7.50803 24.197 7.91568 24.1391 8.41078C23.8861 10.574 23.8861 12.7594 24.1391 14.9226C24.197 15.4177 24.603 15.8253 25.1179 15.8829C27.2366 16.1197 29.4297 16.1197 31.5484 15.8829C32.0632 15.8253 32.4692 15.4177 32.5271 14.9226C32.7802 12.7594 32.7802 10.574 32.5271 8.41078C32.4692 7.91568 32.0632 7.50803 31.5484 7.4505ZM24.8402 4.96596C27.1434 4.70854 29.5229 4.70854 31.8261 4.96596C33.4775 5.15053 34.8149 6.45051 35.0102 8.12036C35.2858 10.4766 35.2858 12.8568 35.0102 15.213C34.8149 16.8829 33.4775 18.1828 31.8261 18.3674C29.5229 18.6248 27.1434 18.6248 24.8402 18.3674C23.1888 18.1828 21.8514 16.8829 21.6561 15.213C21.3805 12.8568 21.3805 10.4766 21.6561 8.12036C21.8514 6.45051 23.1888 5.15053 24.8402 4.96596Z" fill="white"/>
<path fill-rule="evenodd" clip-rule="evenodd" d="M30.3893 32.5496H27.8893H26.3893H25.3511L31.7816 32.5496L31.3893 32.5496H30.3893ZM25.0734 21.6326C27.3766 21.3752 29.7561 21.3752 32.0593 21.6326C33.7107 21.8172 35.0481 23.1172 35.2434 24.787C35.519 27.1432 35.519 29.5235 35.2434 31.8797C35.0481 33.5495 33.7107 34.8495 32.0593 35.0341C29.7561 35.2915 27.3766 35.2915 25.0734 35.0341C23.422 34.8495 22.0846 33.5495 21.8893 31.8797C21.6137 29.5235 21.6137 27.1432 21.8893 24.787C22.0846 23.1172 23.422 21.8172 25.0734 21.6326Z" fill="white"/>
<path fill-rule="evenodd" clip-rule="evenodd" d="M13.4894 32.5496H10.9894H9.48939L8.45119 32.5496H14.8818L14.4894 32.5496H13.4894ZM8.17351 21.6326C10.4768 21.3752 12.8562 21.3752 15.1594 21.6326C16.8108 21.8172 18.1482 23.1172 18.3436 24.787C18.6191 27.1432 18.6191 29.5235 18.3436 31.8797C18.1482 33.5495 16.8108 34.8495 15.1594 35.0341C12.8562 35.2915 10.4768 35.2915 8.17351 35.0341C6.52211 34.8495 5.1847 33.5495 4.9894 31.8797C4.71382 29.5235 4.71382 27.1432 4.9894 24.787C5.1847 23.1172 6.52211 21.8172 8.17351 21.6326Z" fill="white"/>
<path fill-rule="evenodd" clip-rule="evenodd" d="M30.1561 15.8829H27.6561H26.1561L25.1179 15.8829H31.5484L31.1561 15.8829H30.1561ZM24.8402 4.96596C27.1434 4.70854 29.5229 4.70854 31.8261 4.96596C33.4775 5.15053 34.8149 6.45051 35.0102 8.12036C35.2858 10.4766 35.2858 12.8568 35.0102 15.213C34.8149 16.8829 33.4775 18.1828 31.8261 18.3674C29.5229 18.6248 27.1434 18.6248 24.8402 18.3674C23.1888 18.1828 21.8514 16.8829 21.6561 15.213C21.3805 12.8568 21.3805 10.4766 21.6561 8.12036C21.8514 6.45051 23.1888 5.15053 24.8402 4.96596Z" fill="white"/>
<path fill-rule="evenodd" clip-rule="evenodd" d="M13.4894 15.8829H10.9894H9.48939L8.45119 15.8829H14.8818L14.4894 15.8829H13.4894ZM8.17351 4.96596C10.4768 4.70854 12.8562 4.70854 15.1594 4.96596C16.8108 5.15053 18.1482 6.45051 18.3436 8.12036C18.6191 10.4766 18.6191 12.8568 18.3436 15.213C18.1482 16.8829 16.8108 18.1828 15.1594 18.3674C12.8562 18.6248 10.4768 18.6248 8.17351 18.3674C6.52211 18.1828 5.1847 16.8829 4.9894 15.213C4.71382 12.8568 4.71382 10.4766 4.9894 8.12036C5.1847 6.45051 6.52211 5.15053 8.17351 4.96596Z" fill="white"/>
</svg>
