<svg width="30" height="30" viewBox="0 0 30 30" fill="none" xmlns="http://www.w3.org/2000/svg">
<rect width="30" height="30" rx="15" fill="#627EEA"/>
<path fill-rule="evenodd" clip-rule="evenodd" d="M8.75 15L15 5V12.3075L8.75 15ZM20.9375 15L15 12.311V5L20.9375 15Z" fill="white"/>
<path fill-rule="evenodd" clip-rule="evenodd" d="M15 19.4517L8.75 15.7017L15 13V19.4517Z" fill="white"/>
<path fill-rule="evenodd" clip-rule="evenodd" d="M15 19.4517L21.25 15.7017L15 13V19.4517Z" fill="white"/>
<path fill-rule="evenodd" clip-rule="evenodd" d="M8.75 16.5625L15 20.1704V25L8.75 16.5625ZM20.9375 16.5625L15 25V20.1704L20.9375 16.5625Z" fill="white"/>
<path fill-rule="evenodd" clip-rule="evenodd" d="M20.9375 15L15 12.311V5L20.9375 15Z" fill="white"/>
<path fill-rule="evenodd" clip-rule="evenodd" d="M20.9375 16.5625L15 20.1699V25L20.9375 16.5625Z" fill="white"/>
</svg>
