<svg width="40" height="34" viewBox="0 0 40 34" fill="none" xmlns="http://www.w3.org/2000/svg">
<path d="M8.82583 3.32583C9.55806 2.59359 9.55806 1.40641 8.82583 0.674175C8.09359 -0.0580583 6.90641 -0.0580583 6.17417 0.674175L1.17417 5.67417C0.441942 6.40641 0.441942 7.59359 1.17417 8.32583L6.17417 13.3258C6.90641 14.0581 8.09359 14.0581 8.82583 13.3258C9.55806 12.5936 9.55806 11.4064 8.82583 10.6742L7.02665 8.875H32.5C33.5355 8.875 34.375 8.03553 34.375 7C34.375 5.96447 33.5355 5.125 32.5 5.125H7.02665L8.82583 3.32583Z" fill="#909090"/>
<path d="M31.1742 20.6742C30.4419 21.4064 30.4419 22.5936 31.1742 23.3258L32.9734 25.125H7.5C6.46447 25.125 5.625 25.9645 5.625 27C5.625 28.0355 6.46447 28.875 7.5 28.875H32.9734L31.1742 30.6742C30.4419 31.4064 30.4419 32.5936 31.1742 33.3258C31.9064 34.0581 33.0936 34.0581 33.8258 33.3258L38.8258 28.3258C39.5581 27.5936 39.5581 26.4064 38.8258 25.6742L33.8258 20.6742C33.0936 19.9419 31.9064 19.9419 31.1742 20.6742Z" fill="#909090"/>
</svg>
