<svg width="24" height="28" viewBox="0 0 24 28" fill="none" xmlns="http://www.w3.org/2000/svg">
<g filter="url(#filter0_d_1249_19956)">
<path fill-rule="evenodd" clip-rule="evenodd" d="M19.002 4.02543C19.552 4.02843 19.997 4.47443 19.997 5.02443L20 9.99943C20.001 10.5514 19.553 11.0004 19.001 11.0004H19C18.448 11.0004 18.001 10.5524 18 10.0014L17.998 7.41643L14.707 10.7074C14.512 10.9024 14.256 11.0004 14 11.0004C13.745 11.0004 13.489 10.9024 13.293 10.7074C12.903 10.3164 12.903 9.68343 13.293 9.29343L16.573 6.01343L13.996 6.00043C13.443 5.99743 12.997 5.54643 13 4.99543C13.003 4.44443 13.451 4.00043 14 4.00043H14.005L19.002 4.02543ZM9.29302 13.2932C9.68401 12.9022 10.316 12.9022 10.707 13.2932C11.098 13.6842 11.098 14.3162 10.707 14.7072L7.41501 17.9992L10 18.0002C10.553 18.0002 11 18.4482 11 19.0012C10.999 19.5532 10.552 20.0002 10 20.0002H9.99901L5.02402 19.9972C4.47402 19.9972 4.02802 19.5522 4.02502 19.0022L4.00002 14.0052C3.99702 13.4532 4.44302 13.0032 4.99502 13.0002H5.00002C5.55001 13.0002 5.99701 13.4442 6.00002 13.9952L6.01302 16.5732L9.29302 13.2932Z" fill="#9295A6"/>
</g>
<defs>
<filter id="filter0_d_1249_19956" x="-4" y="0" width="32" height="32" filterUnits="userSpaceOnUse" color-interpolation-filters="sRGB">
<feFlood flood-opacity="0" result="BackgroundImageFix"/>
<feColorMatrix in="SourceAlpha" type="matrix" values="0 0 0 0 0 0 0 0 0 0 0 0 0 0 0 0 0 0 127 0" result="hardAlpha"/>
<feOffset dy="4"/>
<feGaussianBlur stdDeviation="2"/>
<feComposite in2="hardAlpha" operator="out"/>
<feColorMatrix type="matrix" values="0 0 0 0 0 0 0 0 0 0 0 0 0 0 0 0 0 0 0.25 0"/>
<feBlend mode="normal" in2="BackgroundImageFix" result="effect1_dropShadow_1249_19956"/>
<feBlend mode="normal" in="SourceGraphic" in2="effect1_dropShadow_1249_19956" result="shape"/>
</filter>
</defs>
</svg>
