<svg width="30" height="34" viewBox="0 0 30 34" fill="none" xmlns="http://www.w3.org/2000/svg">
<path fill-rule="evenodd" clip-rule="evenodd" d="M12.0941 3.125C11.7478 3.125 11.4281 3.3108 11.2567 3.61171L4.28589 15.8476C3.36186 17.4696 2.97409 19.3421 3.17799 21.1976L3.91371 27.8928C4.04461 29.084 4.97976 30.0275 6.16975 30.1691L10.5803 30.6938C13.4919 31.0401 16.444 30.7399 19.2263 29.8145C20.6003 29.3575 21.7009 28.3146 22.2311 26.9671L25.7813 17.9451C25.8681 17.7245 25.9281 17.4943 25.96 17.2594C26.2292 15.2758 24.4928 13.6026 22.5206 13.9451L15.4043 15.1811C13.1564 15.5715 11.2149 13.5878 11.6536 11.3488L13.0399 4.27412C13.1566 3.67877 12.7008 3.12499 12.0941 3.125ZM8.54139 2.06481C9.26865 0.788253 10.6249 1.31629e-05 12.0941 1.703e-10C14.6678 -2.30966e-05 16.6015 2.34933 16.1066 4.87502L14.7203 11.9497C14.7144 11.9801 14.7176 11.9986 14.7217 12.0119C14.7269 12.0282 14.7374 12.0474 14.7548 12.0652C14.7723 12.083 14.7912 12.094 14.8075 12.0995C14.8207 12.1039 14.8391 12.1075 14.8696 12.1022L21.9858 10.8662C26.0404 10.162 29.6101 13.6019 29.0566 17.6797C28.991 18.1626 28.8677 18.6359 28.6892 19.0894L25.1391 28.1114C24.2697 30.3206 22.4653 32.0305 20.2126 32.7798C16.9941 33.8502 13.5792 34.1975 10.2111 33.7969L5.80061 33.2722C3.16685 32.9589 1.09712 30.8706 0.807404 28.2341L0.07169 21.539C-0.204175 19.0285 0.320447 16.4951 1.57061 14.3007L8.54139 2.06481Z" fill="#909090"/>
</svg>
