<svg width="32" height="20" viewBox="0 0 32 20" fill="none" xmlns="http://www.w3.org/2000/svg">
<path d="M16.0005 17.4146C17.9329 15.593 19.1523 12.9481 19.1523 10.0104C19.1523 7.07201 17.9325 4.42855 16.0005 2.58674C14.312 0.980913 12.0625 0.00115967 9.58645 0.00115967C4.29813 0.00115967 0.00195312 4.48711 0.00195312 10.01C0.00195312 15.5343 4.29813 19.9998 9.58645 19.9998C12.0626 20.0002 14.312 19.0213 16.0005 17.4146Z" fill="#25A1FF"/>
<path d="M16 17.415C17.9323 15.5934 19.1518 12.9484 19.1518 10.0107C19.1518 7.07236 17.932 4.42891 16 2.5871V17.415Z" fill="#009DDD"/>
<path d="M22.4355 0.00115967C19.959 0.00115967 17.7081 0.980914 16.0014 2.58675C15.6643 2.91947 15.3458 3.27226 15.0447 3.64522H16.9763C17.2394 3.97716 17.4833 4.35012 17.7081 4.70223H14.3128C14.1072 5.05503 13.9195 5.40821 13.7501 5.76002H18.2519C18.4027 6.11213 18.5518 6.466 18.6644 6.81811H13.3579C13.2449 7.17061 13.1509 7.52409 13.0762 7.89529H18.9462C19.0771 8.56142 19.1532 9.28649 19.1532 10.0104C19.1532 11.1073 18.9834 12.1852 18.6645 13.184H13.358C13.4696 13.5361 13.6011 13.8893 13.7506 14.2418H18.2524C18.084 14.5945 17.9145 14.9664 17.7082 15.2995H14.3129C14.5392 15.6718 14.7824 16.0242 15.0447 16.3573H16.9763C16.6768 16.7296 16.3574 17.0824 16.0014 17.4151C17.7082 19.0217 19.959 20.0007 22.4355 20.0007C27.7244 20.0007 32.001 15.5352 32.001 10.0109C32.0006 4.48721 27.7244 0.00115967 22.4355 0.00115967Z" fill="#EF4444"/>
<path d="M28.7012 12.166C28.7012 11.9894 28.852 11.8528 29.0204 11.8528C29.1896 11.8528 29.3204 11.9895 29.3204 12.166C29.3204 12.343 29.1895 12.4994 29.0204 12.4994C28.852 12.4994 28.7012 12.343 28.7012 12.166ZM29.0204 12.421C29.1513 12.421 29.2453 12.3034 29.2453 12.166C29.2453 12.029 29.1512 11.9308 29.0204 11.9308C28.8889 11.9308 28.7773 12.029 28.7773 12.166C28.7773 12.3034 28.8889 12.421 29.0204 12.421ZM28.9828 12.3034H28.9081V12.0289H29.0203C29.0572 12.0289 29.0765 12.0289 29.0957 12.0487C29.1143 12.0681 29.1326 12.0872 29.1326 12.1074C29.1326 12.1469 29.114 12.1861 29.0764 12.1861L29.1326 12.3033H29.0572L29.0203 12.2051H28.9828V12.3034ZM28.9828 12.1469H29.0203C29.0203 12.1469 29.0389 12.1469 29.0572 12.1469C29.0572 12.1469 29.0572 12.1268 29.0572 12.1074V12.0872C29.0386 12.0872 29.0203 12.0872 29.0018 12.0872H28.9824V12.1469H28.9828Z" fill="white"/>
<path d="M8.38867 12.4999H7.18885L7.90132 8.60194L6.27003 12.4999H5.18112L4.99407 8.62133L4.28161 12.4999H3.19336L4.11284 7.42694H5.98763L6.08129 10.5603L7.39587 7.42694H9.32569L8.38867 12.4999Z" fill="white"/>
<path d="M21.7039 12.4412C21.3661 12.5384 21.1222 12.5775 20.8405 12.5775C20.2409 12.5775 19.9023 12.2643 19.9023 11.6773C19.9023 11.5593 19.9217 11.4413 19.9398 11.3043L20.0146 10.8929L20.0721 10.58L20.6156 7.42694H21.7968L21.6288 8.36635H22.2469L22.0786 9.36618H21.4598L21.1598 11.0893C21.1405 11.1677 21.1223 11.2267 21.1223 11.2656C21.1223 11.4814 21.2539 11.5784 21.5356 11.5784C21.6665 11.5784 21.7781 11.559 21.8542 11.5395L21.7039 12.4412Z" fill="white"/>
<path d="M25.1755 8.40811C25.0814 8.36816 25.0633 8.36816 25.0446 8.36816C24.9878 8.34799 24.9506 8.34799 24.9506 8.32928C24.9123 8.32928 24.8752 8.32928 24.8197 8.32928C24.425 8.32928 24.144 8.50553 23.7872 8.99463L23.8994 8.36816H22.8112L22.0801 12.5013H23.2805C23.7117 9.9736 23.8808 9.52367 24.4618 9.52367C24.4993 9.52367 24.5565 9.54345 24.612 9.54345L24.7435 9.58232L25.1755 8.40811Z" fill="white"/>
<path d="M16.9793 9.67956C16.9793 10.1892 17.2611 10.5611 17.8988 10.8165C18.3868 11.0312 18.4619 11.0905 18.4619 11.2866C18.4619 11.5409 18.2363 11.6589 17.7677 11.6589C17.4112 11.6589 17.073 11.5999 16.6794 11.483L16.5293 12.4429H16.5861L16.7917 12.5011C16.8664 12.5011 16.9787 12.5209 17.1103 12.5209C17.3921 12.5594 17.6173 12.5594 17.786 12.5594C19.0427 12.5594 19.6429 12.1286 19.6429 11.1888C19.6429 10.6204 19.399 10.2878 18.7802 10.0331C18.2733 9.83711 18.2175 9.77846 18.2175 9.58253C18.2175 9.3678 18.4238 9.24981 18.8177 9.24981C19.0426 9.24981 19.3797 9.26998 19.6797 9.30807L19.8489 8.36826C19.5303 8.31039 19.0616 8.29022 18.7985 8.29022C17.4487 8.28954 16.9793 8.91601 16.9793 9.67956Z" fill="white"/>
<path d="M12.2517 12.5014H11.2761L11.2954 12.0698C10.9955 12.4032 10.5828 12.5597 10.0388 12.5597C9.40168 12.5597 8.95117 12.1094 8.95117 11.4433C8.95117 10.4438 9.71914 9.8565 11.0519 9.8565C11.182 9.8565 11.3515 9.8565 11.5392 9.87667C11.5767 9.73968 11.5767 9.68025 11.5767 9.62199C11.5767 9.34792 11.3697 9.24971 10.8073 9.24971C10.4695 9.24971 10.0955 9.28887 9.8324 9.34792L9.66401 9.40686L9.55103 9.42596L9.71942 8.50564C10.3204 8.34809 10.6951 8.29022 11.1459 8.29022C12.1765 8.29022 12.7021 8.70098 12.7021 9.48422C12.7021 9.70003 12.6836 9.85679 12.6088 10.3075L12.365 11.7767L12.3275 12.031L12.2892 12.2472L12.2707 12.3835L12.2517 12.5014ZM11.3891 10.6596C11.2568 10.6402 11.2014 10.6402 11.1266 10.6402C10.4509 10.6402 10.1138 10.8556 10.1138 11.2675C10.1138 11.5218 10.2632 11.6983 10.5256 11.6983C11.0144 11.6983 11.3701 11.2675 11.3891 10.6596Z" fill="white"/>
<path d="M16.1682 12.4003C15.7563 12.5179 15.3624 12.5762 14.9491 12.5762C13.6191 12.5762 12.9238 11.9295 12.9238 10.7153C12.9238 9.3047 13.8058 8.26678 15.0063 8.26678C15.9812 8.26678 16.6015 8.85448 16.6015 9.75541C16.6015 10.0683 16.5632 10.3636 16.4699 10.7743H14.0868C14.0868 10.8524 14.0868 10.8718 14.0868 10.9117C14.0868 11.3818 14.4246 11.6361 15.1186 11.6361C15.5501 11.6361 15.9438 11.5581 16.3559 11.3822L16.1682 12.4003ZM15.5311 9.95252C15.5311 9.87379 15.5311 9.79497 15.5311 9.73671C15.5311 9.40399 15.3241 9.20727 14.9684 9.20727C14.593 9.20727 14.3306 9.48134 14.2173 9.95252H15.5311Z" fill="white"/>
<path d="M28.8879 10.6185C28.7002 11.9887 27.7814 12.5962 26.5616 12.5962C25.2309 12.5962 24.6875 11.7546 24.6875 10.6969C24.6875 9.24718 25.6056 8.24725 27.031 8.24725C28.269 8.24725 28.9254 9.07014 28.9254 10.1085C28.9258 10.3646 28.9258 10.3837 28.8879 10.6185ZM27.6505 10.0891C27.6505 9.65823 27.4814 9.26764 26.9949 9.26764C26.3932 9.26764 26.0186 10.011 26.0186 10.6774C26.0186 11.2263 26.2817 11.5982 26.6943 11.5982C26.9567 11.5982 27.5194 11.2263 27.6131 10.5994C27.6505 10.442 27.6505 10.2664 27.6505 10.0891Z" fill="white"/>
</svg>
