<svg width="51" height="35" viewBox="0 0 51 35" fill="none" xmlns="http://www.w3.org/2000/svg">
<g filter="url(#filter0_d_1141_8067)">
<path d="M20.0371 3.27637H31.2967V23.8808H20.0371V3.27637Z" fill="#BDBDBD"/>
<path d="M20.7523 13.5789C20.7523 9.39259 22.6825 5.67934 25.6492 3.27664C23.4689 1.5293 20.7166 0.473633 17.7141 0.473633C10.6006 0.473633 4.8457 6.33453 4.8457 13.5789C4.8457 20.8232 10.6006 26.6843 17.7139 26.6843C20.7165 26.6843 23.4688 25.6286 25.6492 23.8811C22.6825 21.5149 20.7523 17.7653 20.7523 13.5789Z" fill="#828282"/>
<path d="M46.4891 13.5789C46.4891 20.8232 40.7342 26.6843 33.6209 26.6843C30.6183 26.6843 27.866 25.6286 25.6855 23.8811C28.6881 21.4785 30.5826 17.7653 30.5826 13.5789C30.5826 9.39259 28.6523 5.67934 25.6855 3.27664C27.8658 1.5293 30.6183 0.473633 33.6209 0.473633C40.7342 0.473633 46.4892 6.37101 46.4892 13.5789H46.4891Z" fill="white"/>
</g>
<defs>
<filter id="filter0_d_1141_8067" x="-2.1543" y="0" width="56" height="35" filterUnits="userSpaceOnUse" color-interpolation-filters="sRGB">
<feFlood flood-opacity="0" result="BackgroundImageFix"/>
<feColorMatrix in="SourceAlpha" type="matrix" values="0 0 0 0 0 0 0 0 0 0 0 0 0 0 0 0 0 0 127 0" result="hardAlpha"/>
<feOffset dy="4"/>
<feGaussianBlur stdDeviation="2"/>
<feComposite in2="hardAlpha" operator="out"/>
<feColorMatrix type="matrix" values="0 0 0 0 0 0 0 0 0 0 0 0 0 0 0 0 0 0 0.25 0"/>
<feBlend mode="normal" in2="BackgroundImageFix" result="effect1_dropShadow_1141_8067"/>
<feBlend mode="normal" in="SourceGraphic" in2="effect1_dropShadow_1141_8067" result="shape"/>
</filter>
</defs>
</svg>
