<svg width="80" height="20" viewBox="0 0 80 20" fill="none" xmlns="http://www.w3.org/2000/svg">
<path d="M61.8386 5.21918H57.5211C57.2671 5.21918 57.0132 5.46763 56.8862 5.71609L55.1084 16.6481C55.1084 16.8965 55.2354 17.0208 55.4894 17.0208H57.7751C58.029 17.0208 58.156 16.8965 58.156 16.6481L58.664 13.5424C58.664 13.294 58.9179 13.0455 59.2989 13.0455H60.6957C63.6163 13.0455 65.2671 11.679 65.6481 8.946C65.9021 7.82795 65.6481 6.83413 65.1402 6.213C64.3783 5.59186 63.2354 5.21918 61.8386 5.21918ZM62.3465 9.31868C62.0925 10.8094 60.9497 10.8094 59.8068 10.8094H59.0449L59.5529 7.95218C59.5529 7.82795 59.6798 7.70372 59.9338 7.70372H60.1878C60.9497 7.70372 61.7116 7.70372 62.0925 8.20063C62.3465 8.32486 62.3465 8.69755 62.3465 9.31868Z" fill="#139AD6"/>
<path d="M30.7292 5.21918H26.4117C26.1577 5.21918 25.9038 5.46763 25.7768 5.71609L23.999 16.6481C23.999 16.8965 24.126 17.0208 24.38 17.0208H26.4117C26.6657 17.0208 26.9197 16.7723 27.0466 16.5239L27.5546 13.5424C27.5546 13.294 27.8085 13.0455 28.1895 13.0455H29.5863C32.5069 13.0455 34.1577 11.679 34.5387 8.946C34.7926 7.82795 34.5387 6.83413 34.0307 6.213C33.2688 5.59186 32.253 5.21918 30.7292 5.21918ZM31.2371 9.31868C30.9831 10.8094 29.8403 10.8094 28.6974 10.8094H28.0625L28.5704 7.95218C28.5704 7.82795 28.6974 7.70372 28.9514 7.70372H29.2054C29.9673 7.70372 30.7292 7.70372 31.1101 8.20063C31.2371 8.32486 31.3641 8.69755 31.2371 9.31868Z" fill="#263B80"/>
<path d="M43.8094 9.1942H41.7777C41.6507 9.1942 41.3968 9.31842 41.3968 9.44265L41.2698 10.0638L41.1428 9.81534C40.6349 9.1942 39.746 8.94574 38.7301 8.94574C36.4444 8.94574 34.4126 10.6849 34.0317 13.0453C33.7777 14.2875 34.1587 15.4056 34.7936 16.151C35.4285 16.8963 36.3174 17.1448 37.4603 17.1448C39.365 17.1448 40.3809 16.0267 40.3809 16.0267L40.2539 16.6479C40.2539 16.8963 40.3809 17.0205 40.6349 17.0205H42.5396C42.7936 17.0205 43.0475 16.7721 43.1745 16.5236L44.3174 9.56688C44.1904 9.44265 43.9364 9.1942 43.8094 9.1942ZM40.8888 13.1695C40.6349 14.2875 39.746 15.1571 38.4761 15.1571C37.8412 15.1571 37.3333 14.9087 37.0793 14.6602C36.8253 14.2875 36.6984 13.7906 36.6984 13.1695C36.8253 12.0514 37.8412 11.1818 38.9841 11.1818C39.619 11.1818 39.9999 11.4303 40.3809 11.6788C40.7618 12.0514 40.8888 12.6726 40.8888 13.1695Z" fill="#263B80"/>
<path d="M74.7919 9.1942H72.7602C72.6332 9.1942 72.3792 9.31842 72.3792 9.44265L72.2522 10.0638L72.1253 9.81534C71.6173 9.1942 70.7284 8.94574 69.7126 8.94574C67.4268 8.94574 65.3951 10.6849 65.0141 13.0453C64.7602 14.2875 65.1411 15.4056 65.776 16.151C66.411 16.8963 67.2998 17.1448 68.4427 17.1448C70.3475 17.1448 71.3634 16.0267 71.3634 16.0267L71.2364 16.6479C71.2364 16.8963 71.3634 17.0205 71.6173 17.0205H73.5221C73.7761 17.0205 74.03 16.7721 74.157 16.5236L75.2999 9.56688C75.1729 9.44265 75.0459 9.1942 74.7919 9.1942ZM71.8713 13.1695C71.6173 14.2875 70.7284 15.1571 69.4586 15.1571C68.8237 15.1571 68.3157 14.9087 68.0618 14.6602C67.8078 14.2875 67.6808 13.7906 67.6808 13.1695C67.8078 12.0514 68.8237 11.1818 69.9665 11.1818C70.6014 11.1818 70.9824 11.4303 71.3634 11.6788C71.8713 12.0514 71.9983 12.6726 71.8713 13.1695Z" fill="#139AD6"/>
<path d="M54.8549 9.19183H52.6962C52.4422 9.19183 52.3152 9.31606 52.1882 9.44029L49.3946 13.664L48.1248 9.68874C47.9978 9.44029 47.8708 9.31606 47.4898 9.31606H45.4581C45.2041 9.31606 45.0771 9.56451 45.0771 9.81297L47.3629 16.397L45.2041 19.3784C45.0771 19.6269 45.2041 19.9996 45.4581 19.9996H47.4898C47.7438 19.9996 47.8708 19.8754 47.9978 19.7511L54.9819 9.9372C55.3628 9.56452 55.1089 9.19183 54.8549 9.19183Z" fill="#263B80"/>
<path d="M77.2065 5.59059L75.4287 16.771C75.4287 17.0195 75.5557 17.1437 75.8097 17.1437H77.5874C77.8414 17.1437 78.0954 16.8952 78.2224 16.6468L80.0001 5.71481C80.0001 5.46636 79.8732 5.34213 79.6192 5.34213H77.5874C77.4605 5.2179 77.3335 5.34213 77.2065 5.59059Z" fill="#139AD6"/>
<path d="M14.6022 1.49115C13.7133 0.497335 12.0625 0.000427246 9.7768 0.000427246H3.42759C3.04664 0.000427246 2.66569 0.373107 2.53871 0.745789L-0.000976562 17.0196C-0.000976562 17.3923 0.252992 17.6407 0.50696 17.6407H4.44347L5.45934 11.5536V11.802C5.58632 11.4293 5.96728 11.0567 6.34823 11.0567H8.25299C11.9355 11.0567 14.7292 9.56593 15.6181 5.46643C15.6181 5.3422 15.6181 5.21797 15.6181 5.09375C15.4911 5.09375 15.4911 5.09375 15.6181 5.09375C15.7451 3.47879 15.4911 2.48497 14.6022 1.49115Z" fill="#263B80"/>
<path d="M15.4921 5.09418C15.4921 5.2184 15.4921 5.34263 15.4921 5.46686C14.6032 9.69059 11.8095 11.0571 8.12697 11.0571H6.22221C5.84126 11.0571 5.4603 11.4298 5.33332 11.8025L4.06348 19.3803C4.06348 19.6288 4.19046 19.8772 4.57141 19.8772H7.873C8.25395 19.8772 8.63491 19.6288 8.63491 19.2561V19.1319L9.26983 15.2808V15.0324C9.26983 14.6597 9.65078 14.4112 10.0317 14.4112H10.5397C13.7143 14.4112 16.254 13.169 16.8889 9.44213C17.1428 7.95141 17.0159 6.58491 16.254 5.71531C16.127 5.46686 15.873 5.2184 15.4921 5.09418Z" fill="#139AD6"/>
<path d="M14.5989 4.72076C14.4719 4.72076 14.345 4.59654 14.218 4.59654C14.091 4.59654 13.964 4.59654 13.837 4.47231C13.3291 4.34808 12.8212 4.34808 12.1862 4.34808H7.23384C7.10685 4.34808 6.97987 4.34808 6.85288 4.47231C6.59891 4.59654 6.47193 4.84499 6.47193 5.09344L5.45605 11.5532V11.8017C5.58304 11.429 5.96399 11.0563 6.34495 11.0563H8.24971C11.9323 11.0563 14.7259 9.56561 15.6148 5.46612C15.6148 5.3419 15.6148 5.21767 15.7418 5.09344C15.4878 4.96922 15.3608 4.84499 15.1069 4.84499C14.7259 4.72076 14.7259 4.72076 14.5989 4.72076Z" fill="#232C65"/>
</svg>
