<svg width="52" height="16" viewBox="0 0 52 16" fill="none" xmlns="http://www.w3.org/2000/svg">
<path d="M35.0326 0H31.0354C30.8003 0 30.5652 0.268903 30.4476 0.537807L28.8018 12.3696C28.8018 12.6385 28.9193 12.7729 29.1544 12.7729H31.2706C31.5057 12.7729 31.6232 12.6385 31.6232 12.3696L32.0935 9.00828C32.0935 8.73938 32.3286 8.47048 32.6813 8.47048H33.9745C36.6784 8.47048 38.2067 6.9915 38.5594 4.03356C38.7945 2.82349 38.5594 1.74788 38.0892 1.07562C37.3838 0.403357 36.3257 0 35.0326 0ZM35.5028 4.43692C35.2677 6.05034 34.2096 6.05034 33.1516 6.05034H32.4462L32.9164 2.95794C32.9164 2.82349 33.034 2.68904 33.2691 2.68904H33.5042C34.2096 2.68904 34.915 2.68904 35.2677 3.22685C35.5028 3.3613 35.5028 3.76466 35.5028 4.43692Z" fill="white"/>
<path d="M6.23077 0H2.23367C1.99855 0 1.76342 0.268903 1.64586 0.537807L0 12.3696C0 12.6385 0.117563 12.7729 0.352686 12.7729H2.23367C2.46879 12.7729 2.70392 12.504 2.82148 12.2351L3.29173 9.00828C3.29173 8.73938 3.52685 8.47048 3.87954 8.47048H5.17271C7.87663 8.47048 9.40493 6.9915 9.75762 4.03356C9.99274 2.82349 9.75762 1.74788 9.28737 1.07562C8.582 0.403357 7.64151 0 6.23077 0ZM6.70101 4.43692C6.46589 6.05034 5.40784 6.05034 4.34978 6.05034H3.76197L4.23222 2.95794C4.23222 2.82349 4.34978 2.68904 4.5849 2.68904H4.82003C5.5254 2.68904 6.23077 2.68904 6.58345 3.22685C6.70101 3.3613 6.81858 3.76466 6.70101 4.43692Z" fill="white"/>
<path d="M18.3388 4.30211H16.4578C16.3402 4.30211 16.1051 4.43656 16.1051 4.57101L15.9875 5.24327L15.87 4.97437C15.3997 4.30211 14.5768 4.0332 13.6363 4.0332C11.5202 4.0332 9.63922 5.91554 9.28654 8.47014C9.05142 9.81466 9.4041 11.0247 9.99191 11.8314C10.5797 12.6382 11.4026 12.9071 12.4607 12.9071C14.2241 12.9071 15.1646 11.697 15.1646 11.697L15.0471 12.3693C15.0471 12.6382 15.1646 12.7726 15.3997 12.7726H17.1632C17.3983 12.7726 17.6334 12.5037 17.751 12.2348L18.809 4.70547C18.6915 4.57101 18.4563 4.30211 18.3388 4.30211ZM15.6349 8.60459C15.3997 9.81466 14.5768 10.7558 13.4012 10.7558C12.8134 10.7558 12.3431 10.4869 12.108 10.218C11.8729 9.81466 11.7553 9.27685 11.7553 8.60459C11.8729 7.39451 12.8134 6.45335 13.8714 6.45335C14.4592 6.45335 14.8119 6.72225 15.1646 6.99116C15.5173 7.39451 15.6349 8.06678 15.6349 8.60459Z" fill="white"/>
<path d="M47.0244 4.30406H45.1434C45.0258 4.30406 44.7907 4.43851 44.7907 4.57297L44.6731 5.24523L44.5556 4.97632C44.0853 4.30406 43.2624 4.03516 42.3219 4.03516C40.2058 4.03516 38.3248 5.91749 37.9721 8.47209C37.737 9.81661 38.0896 11.0267 38.6775 11.8334C39.2653 12.6401 40.0882 12.909 41.1463 12.909C42.9097 12.909 43.8502 11.6989 43.8502 11.6989L43.7326 12.3712C43.7326 12.6401 43.8502 12.7746 44.0853 12.7746H45.8488C46.0839 12.7746 46.319 12.5057 46.4366 12.2368L47.4946 4.70742C47.3771 4.57297 47.2595 4.30406 47.0244 4.30406ZM44.3205 8.60654C44.0853 9.81661 43.2624 10.7578 42.0868 10.7578C41.499 10.7578 41.0287 10.4889 40.7936 10.22C40.5585 9.81661 40.4409 9.2788 40.4409 8.60654C40.5585 7.39647 41.499 6.4553 42.557 6.4553C43.1448 6.4553 43.4975 6.7242 43.8502 6.99311C44.3205 7.39647 44.438 8.06873 44.3205 8.60654Z" fill="white"/>
<path d="M28.5669 4.30273H26.5684C26.3332 4.30273 26.2157 4.43718 26.0981 4.57164L23.5117 9.14299L22.3361 4.84054C22.2186 4.57164 22.101 4.43719 21.7483 4.43719H19.8673C19.6322 4.43719 19.5146 4.70609 19.5146 4.97499L21.6308 12.1009L19.6322 15.3278C19.5146 15.5967 19.6322 16 19.8673 16H21.7483C21.9834 16 22.101 15.8656 22.2186 15.7311L28.6845 5.10944C29.0371 4.70609 28.802 4.30273 28.5669 4.30273Z" fill="white"/>
<path d="M49.2591 0.403681L47.6133 12.5043C47.6133 12.7732 47.7308 12.9077 47.966 12.9077H49.6118C49.847 12.9077 50.0821 12.6388 50.1996 12.3699L51.8455 0.538131C51.8455 0.269228 51.7279 0.134777 51.4928 0.134777H49.6118C49.4943 0.000325494 49.3767 0.134778 49.2591 0.403681Z" fill="white"/>
</svg>
