<svg width="24" height="24" viewBox="0 0 24 24" fill="none" xmlns="http://www.w3.org/2000/svg">
<path d="M2.39062 18.625H3.17188V18.7969C3.17188 19.0126 3.34676 19.1875 3.5625 19.1875C3.77824 19.1875 3.95312 19.0126 3.95312 18.7969V18.625H4.73438C4.95012 18.625 5.125 18.4501 5.125 18.2344V11.2031C5.125 10.9874 4.95012 10.8125 4.73438 10.8125H3.95312V8.64062C3.95312 8.42488 3.77824 8.25 3.5625 8.25C3.34676 8.25 3.17188 8.42488 3.17188 8.64062V10.8125H2.39062C2.17488 10.8125 2 10.9874 2 11.2031V18.2344C2 18.4501 2.17488 18.625 2.39062 18.625Z" fill="#9295A6"/>
<path d="M7.51562 14.3281H8.29688V16.5C8.29688 16.7157 8.47176 16.8906 8.6875 16.8906C8.90324 16.8906 9.07812 16.7157 9.07812 16.5V14.3281H9.85938C10.0751 14.3281 10.25 14.1532 10.25 13.9375V6.90625C10.25 6.69051 10.0751 6.51562 9.85938 6.51562H9.07812V4.34375C9.07812 4.12801 8.90324 3.95312 8.6875 3.95312C8.47176 3.95312 8.29688 4.12801 8.29688 4.34375V6.51562H7.51562C7.29988 6.51562 7.125 6.69051 7.125 6.90625V13.9375C7.125 14.1532 7.29988 14.3281 7.51562 14.3281Z" fill="#9295A6"/>
<path d="M12.6406 16.6719H13.4219V18.8438C13.4219 19.0595 13.5968 19.2344 13.8125 19.2344C14.0282 19.2344 14.2031 19.0595 14.2031 18.8438V16.6719H14.9844C15.2001 16.6719 15.375 16.497 15.375 16.2812V9.25C15.375 9.03426 15.2001 8.85938 14.9844 8.85938H14.2031V6.6875C14.2031 6.47176 14.0282 6.29688 13.8125 6.29688C13.5968 6.29688 13.4219 6.47176 13.4219 6.6875V8.85938H12.6406C12.4249 8.85938 12.25 9.03426 12.25 9.25V16.2812C12.25 16.497 12.4249 16.6719 12.6406 16.6719Z" fill="#9295A6"/>
<path d="M17.7656 12.375H18.5469V14.5469C18.5469 14.7626 18.7218 14.9375 18.9375 14.9375C19.1532 14.9375 19.3281 14.7626 19.3281 14.5469V12.375H20.1094C20.3251 12.375 20.5 12.2001 20.5 11.9844V4.95312C20.5 4.73738 20.3251 4.5625 20.1094 4.5625H19.3281V2.39062C19.3281 2.17488 19.1532 2 18.9375 2C18.7218 2 18.5469 2.17488 18.5469 2.39062V4.5625H17.7656C17.5499 4.5625 17.375 4.73738 17.375 4.95312V11.9844C17.375 12.2001 17.5499 12.375 17.7656 12.375Z" fill="#9295A6"/>
<path d="M19.9655 20H2.03448C1.76012 20 1.497 20.1054 1.30299 20.2929C1.10899 20.4804 1 20.7348 1 21C1 21.2652 1.10899 21.5196 1.30299 21.7071C1.497 21.8946 1.76012 22 2.03448 22H19.9655C20.2399 22 20.503 21.8946 20.697 21.7071C20.891 21.5196 21 21.2652 21 21C21 20.7348 20.891 20.4804 20.697 20.2929C20.503 20.1054 20.2399 20 19.9655 20Z" fill="#9295A6"/>
</svg>
