<svg width="30" height="30" viewBox="0 0 30 30" fill="none" xmlns="http://www.w3.org/2000/svg">
<rect width="30" height="30" rx="5" fill="#EF4444"/>
<path fill-rule="evenodd" clip-rule="evenodd" d="M19.9944 10.8742C19.9944 10.4167 19.6244 10.0442 19.166 10.0417L12.5052 10H12.5002C12.0419 10 11.6702 10.37 11.6669 10.8283C11.6635 11.2883 12.0344 11.6642 12.4952 11.6667L17.1269 11.6958L10.2444 18.5775C9.91854 18.9033 9.91854 19.4308 10.2444 19.7558C10.4069 19.9192 10.6202 20 10.8335 20C11.0469 20 11.2602 19.9192 11.4227 19.7558L18.3294 12.8492L18.3335 17.5008C18.3335 17.9608 18.7069 18.3333 19.1669 18.3333H19.1677C19.6277 18.3333 20.0002 17.9592 20.0002 17.4992L19.9944 10.8742Z" fill="#9295A6"/>
</svg>
