<svg width="24" height="24" viewBox="0 0 24 24" fill="none" xmlns="http://www.w3.org/2000/svg">
<path fill-rule="evenodd" clip-rule="evenodd" d="M12.474 16.312C12.6246 16.312 12.7753 16.348 12.9127 16.4191L16.4838 18.2857L15.8044 14.3469C15.7504 14.0381 15.8537 13.7235 16.0792 13.5046L18.9558 10.7228L14.9735 10.1429C14.6655 10.0984 14.3993 9.90606 14.2609 9.6275L12.474 6.03271L10.687 9.6275C10.5487 9.90606 10.2824 10.0984 9.97449 10.1429L5.99219 10.7228L8.86877 13.5046C9.09427 13.7235 9.19755 14.0381 9.14354 14.3469L8.46419 18.2857L12.0353 16.4191C12.1727 16.348 12.3233 16.312 12.474 16.312ZM17.7444 20.9597C17.5938 20.9597 17.4431 20.9246 17.3057 20.8526L12.4745 18.3285L7.64322 20.8526C7.32297 21.0194 6.9364 20.99 6.64741 20.7778C6.35558 20.5655 6.21062 20.2064 6.27126 19.8511L7.19222 14.5186L3.28856 10.7429C3.028 10.4918 2.93514 10.1147 3.046 9.77077C3.15591 9.42683 3.45342 9.17669 3.81062 9.12458L9.21227 8.34006L11.6255 3.48322C11.9458 2.83893 13.0032 2.83893 13.3234 3.48322L15.7367 8.34006L21.1383 9.12458C21.4955 9.17669 21.7931 9.42683 21.903 9.77077C22.0138 10.1147 21.921 10.4918 21.6604 10.7429L17.7567 14.5186L18.6777 19.8511C18.7383 20.2064 18.5934 20.5655 18.3015 20.7778C18.1376 20.899 17.9415 20.9597 17.7444 20.9597Z" fill="#9295A6"/>
</svg>
