<svg width="25" height="25" viewBox="0 0 25 25" fill="none" xmlns="http://www.w3.org/2000/svg">
<rect width="25" height="25" rx="12.5" fill="white"/>
<path d="M16.0843 17.4254C15.5391 18.089 14.8292 18.5365 14.001 18.7628C13.6409 18.8606 13.4763 19.0509 13.4969 19.4264C13.5123 19.7968 13.4969 20.162 13.4917 20.5324C13.4917 20.8616 13.322 21.0365 12.9979 21.0468C12.787 21.0519 12.5761 21.0571 12.3652 21.0571C12.18 21.0571 11.9948 21.0571 11.8096 21.0519C11.4598 21.0468 11.2952 20.8462 11.2952 20.5067C11.2901 20.2392 11.2901 19.9665 11.2901 19.699C11.2849 19.1023 11.2644 19.0818 10.6934 18.9892C9.96293 18.8709 9.24277 18.7062 8.57404 18.3822C8.04935 18.125 7.99277 17.9964 8.14194 17.4408C8.25511 17.0293 8.36828 16.6178 8.49688 16.2114C8.58948 15.913 8.67692 15.7793 8.83639 15.7793C8.92898 15.7793 9.04729 15.8256 9.20676 15.9079C9.9475 16.2937 10.7345 16.5097 11.5627 16.6126C11.7016 16.6281 11.8405 16.6383 11.9794 16.6383C12.3652 16.6383 12.7407 16.5663 13.1059 16.4069C14.0267 16.0056 14.1708 14.9408 13.394 14.303C13.1317 14.0869 12.8282 13.9274 12.5144 13.7886C11.7068 13.4336 10.8683 13.1661 10.107 12.7083C8.8724 11.9676 8.0905 10.9542 8.1831 9.45213C8.28598 7.7546 9.24791 6.69493 10.8066 6.12909C11.4496 5.8976 11.4547 5.90275 11.4547 5.23402C11.4547 5.00769 11.4496 4.78135 11.4598 4.54987C11.4753 4.04575 11.5576 3.9583 12.0617 3.94287C12.1183 3.94287 12.18 3.94287 12.2366 3.94287C12.3343 3.94287 12.4321 3.94287 12.5298 3.94287C12.571 3.94287 12.6121 3.94287 12.6481 3.94287C13.6049 3.94287 13.6049 3.98402 13.6101 5.01797C13.6152 5.77929 13.6152 5.77929 14.3714 5.8976C14.9526 5.9902 15.5031 6.15995 16.038 6.39658C16.3312 6.52518 16.4444 6.73094 16.3518 7.04472C16.2181 7.50769 16.0895 7.97579 15.9454 8.43361C15.8528 8.71139 15.7654 8.83999 15.6008 8.83999C15.5082 8.83999 15.395 8.80398 15.251 8.73197C14.5103 8.37188 13.7335 8.19699 12.9208 8.19699C12.8179 8.19699 12.7098 8.20213 12.607 8.20728C12.3652 8.22271 12.1286 8.25357 11.9022 8.35131C11.0998 8.7011 10.9712 9.58588 11.6553 10.1311C12 10.4089 12.3961 10.6044 12.8024 10.7741C13.5123 11.0674 14.2222 11.3503 14.8961 11.7206C17.0154 12.9038 17.5915 15.5941 16.0843 17.4254Z" fill="black"/>
</svg>
