<svg width="50" height="16" viewBox="0 0 50 16" fill="none" xmlns="http://www.w3.org/2000/svg">
<path d="M23.7385 0.750916H19.7715L17.2939 15.2881H21.2544L23.7385 0.750916Z" fill="#0091FF"/>
<path d="M11.9312 15.2714L18.1702 0.758728H13.9718L10.0906 10.674L9.6763 9.17694C8.91549 7.37593 6.74113 4.78373 4.18848 3.1519L7.7363 15.2763L11.9312 15.2714Z" fill="#0091FF"/>
<path d="M35.0539 10.5346C35.0686 8.88416 34.0087 7.62531 31.7247 6.58554C30.3366 5.91396 29.4906 5.46613 29.5008 4.78464C29.5008 4.18256 30.2172 3.53582 31.7696 3.53582C33.0685 3.51588 34.0038 3.79944 34.7353 4.09302L35.0937 4.25729L35.6313 1.10801C34.845 0.814319 33.6158 0.500916 32.0785 0.500916C28.1623 0.500916 25.4057 2.47121 25.3807 5.29707C25.3558 7.38675 27.3515 8.55093 28.854 9.24734C30.3965 9.95723 30.914 10.4115 30.9041 11.0483C30.8942 12.0221 29.6749 12.4661 28.5354 12.4661C26.9481 12.4661 26.1071 12.2473 24.8028 11.704L24.296 11.4712L23.7393 14.7288C24.6641 15.1329 26.3757 15.4862 28.1524 15.5009C32.317 15.5009 35.024 13.5557 35.0539 10.5346Z" fill="#0091FF"/>
<path d="M39.7662 13.1098C40.219 13.1098 44.2644 13.1148 44.8419 13.1148C44.9613 13.621 45.3245 15.2938 45.3245 15.2938H49.0017L45.7922 0.766541H42.732C41.7815 0.766541 41.0752 1.02526 40.657 1.97037L34.7705 15.2938H38.9357C38.9353 15.2938 39.6119 13.503 39.7662 13.1098ZM42.4829 6.06989C42.4633 6.10965 42.8115 5.22913 43.0106 4.68185L43.2792 5.93546C43.2792 5.93546 44.0357 9.40828 44.1948 10.1347H40.9056C41.2341 9.29891 42.4829 6.06989 42.4829 6.06989Z" fill="#0091FF"/>
<path d="M9.51186 8.22519L8.17271 1.80222C7.9438 0.916471 7.27768 0.652963 6.44536 0.618103H0.30567L0.250977 0.911571C5.03291 2.07063 8.19699 4.86675 9.51186 8.22519Z" fill="#F79F1A"/>
</svg>
