<svg width="24" height="25" viewBox="0 0 24 25" fill="none" xmlns="http://www.w3.org/2000/svg">
<path fill-rule="evenodd" clip-rule="evenodd" d="M15.4506 1.90266C16.5126 1.59921 17.6196 2.2142 17.923 3.27627C17.9741 3.45495 18 3.63988 18 3.82571V5.49998H20C21.1046 5.49998 22 6.39541 22 7.49998V19.5C22 20.6045 21.1046 21.5 20 21.5H4C2.89543 21.5 2 20.6045 2 19.5H2.0267C2.00895 19.3924 2 19.2835 2 19.1742V7.25428C2 6.36132 2.59195 5.57655 3.45056 5.33123L15.4506 1.90266ZM10.1401 19.5H20V11.5H18V15.7457C18 16.6386 17.408 17.4234 16.5494 17.6687L10.1401 19.5ZM18 7.49998H20V9.49998H18V7.49998ZM4 7.25426V19.1742L16 15.7457V3.82568L4 7.25426ZM14 9.49998C14 10.0523 13.5523 10.5 13 10.5C12.4477 10.5 12 10.0523 12 9.49998C12 8.9477 12.4477 8.49998 13 8.49998C13.5523 8.49998 14 8.9477 14 9.49998Z" fill="#5367FF"/>
</svg>
