<svg width="49" height="27" viewBox="0 0 49 27" fill="none" xmlns="http://www.w3.org/2000/svg">
<path d="M38.4568 17.1438C36.7199 24.1118 29.6602 28.3475 22.7021 26.6105C15.7339 24.8736 11.4982 17.8142 13.2352 10.8562C14.9721 3.88822 22.0216 -0.347545 28.9898 1.38948C35.9478 3.11624 40.1938 10.1757 38.4568 17.1438Z" fill="white"/>
<path d="M32.0359 11.3803C32.2898 9.65371 30.9797 8.71934 29.1719 8.0998L29.7609 5.75371L28.3391 5.39824L27.7703 7.6834C27.3945 7.59199 27.0086 7.50059 26.6227 7.41934L27.1914 5.12402L25.7695 4.76855L25.1906 7.10449C24.8758 7.0334 24.5711 6.9623 24.2766 6.89121V6.88105L22.3062 6.39355L21.9305 7.91699C21.9305 7.91699 22.9867 8.16074 22.9664 8.1709C23.5453 8.31309 23.6469 8.69902 23.6266 9.00371L22.9562 11.6748C22.9969 11.685 23.0477 11.6951 23.1086 11.7256C23.0578 11.7154 23.007 11.7053 22.9562 11.685L22.0219 15.4225C21.9508 15.5951 21.768 15.8592 21.3719 15.7576C21.382 15.7779 20.3359 15.5037 20.3359 15.5037L19.625 17.1389L21.4836 17.6061C21.8289 17.6975 22.1641 17.7787 22.4992 17.8701L21.9102 20.2365L23.332 20.592L23.9211 18.2459C24.307 18.3475 24.693 18.449 25.0586 18.5404L24.4797 20.8764L25.9016 21.2318L26.4906 18.8654C28.9281 19.3225 30.7563 19.1396 31.518 16.9357C32.1375 15.1686 31.4875 14.1428 30.2078 13.4725C31.1523 13.2592 31.8531 12.6396 32.0359 11.3803ZM28.7758 15.9506C28.3391 17.7178 25.3531 16.7631 24.3883 16.5193L25.1703 13.3811C26.1352 13.6248 29.243 14.1021 28.7758 15.9506ZM29.2227 11.3498C28.8164 12.9646 26.3383 12.142 25.5359 11.9389L26.2469 9.09512C27.0492 9.29824 29.6391 9.67402 29.2227 11.3498Z" fill="#0D0D2B"/>
</svg>
