<svg width="24" height="25" viewBox="0 0 24 25" fill="none" xmlns="http://www.w3.org/2000/svg">
<path fill-rule="evenodd" clip-rule="evenodd" d="M6.87109 13.2998H12.0001C12.2841 13.2998 12.5551 13.4208 12.7441 13.6318C12.9331 13.8428 13.0241 14.1248 12.9941 14.4068L12.5451 18.5568L17.1291 11.6998H12.0001C11.7161 11.6998 11.4451 11.5788 11.2561 11.3678C11.0661 11.1568 10.9751 10.8748 11.0061 10.5928L11.4551 6.44385L6.87109 13.2998ZM11.1109 23.4997C10.9969 23.4997 10.8819 23.4807 10.7689 23.4397C10.3369 23.2817 10.0669 22.8497 10.1169 22.3927L10.8859 15.2997H4.99987C4.63087 15.2997 4.29187 15.0967 4.11787 14.7717C3.94387 14.4457 3.96387 14.0507 4.16887 13.7437L12.0579 1.94474C12.3129 1.56074 12.7969 1.40274 13.2299 1.56074C13.6629 1.71774 13.9329 2.15074 13.8829 2.60774L13.1139 9.69974H18.9999C19.3689 9.69974 19.7079 9.90374 19.8819 10.2287C20.0559 10.5547 20.0359 10.9487 19.8309 11.2557L11.9419 23.0557C11.7529 23.3397 11.4369 23.4997 11.1109 23.4997Z" fill="#9295A6"/>
</svg>
