<svg width="158" height="40" viewBox="0 0 183 41" fill="none" xmlns="http://www.w3.org/2000/svg">
<path fill-rule="evenodd" clip-rule="evenodd" d="M37.9317 29.5381C34.6594 35.8856 28.1537 40.2206 20.6794 40.2206H1.68164V29.5381H37.9317" fill="#5367FF"/>
<path fill-rule="evenodd" clip-rule="evenodd" d="M37.9876 10.9032H0V0.220703H20.7085C28.1946 0.220703 34.7101 4.55568 37.9876 10.9032" fill="#5367FF"/>
<path fill-rule="evenodd" clip-rule="evenodd" d="M40.0018 20.2213C40.0018 21.8842 39.7892 23.5487 39.3681 25.1877H4.43945V15.2549H39.3681C39.7892 16.8934 40.0018 18.5578 40.0018 20.2213" fill="#5367FF"/>
<path d="M65.2232 16.3521H62.1995C62.1443 15.9748 62.0315 15.6397 61.8612 15.3467C61.6909 15.0493 61.4723 14.7963 61.2054 14.5876C60.9385 14.379 60.6301 14.2192 60.2803 14.1082C59.9351 13.9973 59.56 13.9418 59.155 13.9418C58.4233 13.9418 57.7858 14.1171 57.2427 14.4678C56.6997 14.814 56.2785 15.32 55.9794 15.9859C55.6802 16.6473 55.5307 17.4507 55.5307 18.3962C55.5307 19.3683 55.6802 20.1851 55.9794 20.8465C56.2832 21.5079 56.7066 22.0073 57.2497 22.3446C57.7927 22.682 58.421 22.8507 59.1343 22.8507C59.5347 22.8507 59.9052 22.7996 60.2458 22.6975C60.591 22.5954 60.897 22.4467 61.164 22.2514C61.4309 22.0517 61.6518 21.8098 61.8267 21.5256C62.0062 21.2416 62.1305 20.9176 62.1995 20.5535L65.2232 20.5668C65.145 21.1927 64.9494 21.7965 64.6364 22.3779C64.3281 22.955 63.9116 23.4722 63.3869 23.9294C62.8669 24.3821 62.2456 24.7416 61.5229 25.008C60.805 25.2699 59.9927 25.4009 59.086 25.4009C57.8249 25.4009 56.6974 25.1256 55.7033 24.5752C54.7137 24.0248 53.9313 23.228 53.356 22.1849C52.7853 21.1417 52.5 19.8788 52.5 18.3962C52.5 16.9092 52.7899 15.6441 53.3698 14.6009C53.9497 13.5578 54.7368 12.7632 55.7309 12.2172C56.725 11.6668 57.8434 11.3916 59.086 11.3916C59.9052 11.3916 60.6646 11.5026 61.3642 11.7245C62.0683 11.9465 62.6919 12.2705 63.2351 12.6966C63.7781 13.1183 64.2199 13.6355 64.5605 14.2481C64.9057 14.8606 65.1266 15.562 65.2232 16.3521ZM66.9227 25.2144V14.9871H69.774V16.7716H69.8844C70.0777 16.1368 70.4022 15.6574 70.8578 15.3334C71.3134 15.0049 71.8381 14.8406 72.4319 14.8406C72.5791 14.8406 72.7378 14.8495 72.9081 14.8673C73.0784 14.885 73.228 14.9095 73.3569 14.9405V17.4574C73.2188 17.4174 73.0278 17.3819 72.7839 17.3509C72.5399 17.3198 72.3168 17.3042 72.1143 17.3042C71.6816 17.3042 71.2951 17.3952 70.9545 17.5772C70.6185 17.7548 70.3515 18.0034 70.1536 18.323C69.9603 18.6426 69.8637 19.011 69.8637 19.4283V25.2144H66.9227ZM76.627 29.0496C76.2541 29.0496 75.9044 29.0208 75.5776 28.9631C75.2555 28.9099 74.9886 28.841 74.7769 28.7567L75.4396 26.6393C75.7847 26.7414 76.0954 26.7969 76.3716 26.8057C76.6523 26.8146 76.8939 26.7525 77.0964 26.6194C77.3035 26.4861 77.4715 26.2598 77.6004 25.9401L77.7729 25.5074L73.9691 14.9871H77.0619L79.2572 22.4978H79.3677L81.5837 14.9871H84.6972L80.5758 26.3197C80.3779 26.8701 80.1087 27.3496 79.7681 27.7579C79.4322 28.1707 79.0064 28.4882 78.4909 28.7101C77.9755 28.9365 77.3542 29.0496 76.627 29.0496ZM85.8134 29.0496V14.9871H88.7129V16.705H88.844C88.9729 16.4298 89.1594 16.1501 89.4032 15.866C89.6518 15.5775 89.9739 15.3378 90.3697 15.1469C90.7702 14.9516 91.2672 14.854 91.8609 14.854C92.6341 14.854 93.3475 15.0493 94.001 15.4399C94.6546 15.8261 95.177 16.4098 95.5681 17.1911C95.9593 17.9679 96.1549 18.9422 96.1549 20.1141C96.1549 21.2549 95.9639 22.2182 95.5819 23.0038C95.2046 23.7851 94.6891 24.3777 94.0355 24.7817C93.3866 25.1811 92.6594 25.3809 91.854 25.3809C91.2833 25.3809 90.7978 25.2899 90.3973 25.1079C90.0015 24.9259 89.6771 24.6973 89.4239 24.422C89.1708 24.1424 88.9775 23.8606 88.844 23.5764H88.7543V29.0496H85.8134ZM88.6922 20.1008C88.6922 20.7089 88.7796 21.2393 88.9546 21.6921C89.1294 22.1449 89.3825 22.4978 89.7139 22.7508C90.0453 22.9994 90.448 23.1237 90.922 23.1237C91.4006 23.1237 91.8057 22.9971 92.1371 22.7442C92.4684 22.4867 92.7193 22.1315 92.8896 21.6788C93.0645 21.2216 93.1518 20.6956 93.1518 20.1008C93.1518 19.5104 93.0667 18.991 92.8965 18.5427C92.7262 18.0944 92.4753 17.7437 92.144 17.4907C91.8126 17.2377 91.4053 17.1112 90.922 17.1112C90.4434 17.1112 90.0384 17.2332 89.707 17.4774C89.3802 17.7215 89.1294 18.0677 88.9546 18.5161C88.7796 18.9644 88.6922 19.4926 88.6922 20.1008ZM103.367 14.9871V17.1178H96.9811V14.9871H103.367ZM98.4309 12.5368H101.372V22.0716C101.372 22.3336 101.413 22.5378 101.496 22.6842C101.579 22.8263 101.694 22.9262 101.841 22.9838C101.993 23.0416 102.168 23.0704 102.366 23.0704C102.504 23.0704 102.642 23.0593 102.78 23.0372C102.918 23.0104 103.024 22.9905 103.098 22.9772L103.56 25.0879C103.413 25.1323 103.206 25.1834 102.939 25.241C102.672 25.3032 102.348 25.3409 101.966 25.3542C101.257 25.3809 100.635 25.2899 100.102 25.0813C99.5722 24.8726 99.1604 24.5486 98.8659 24.1091C98.5712 23.6697 98.4263 23.1148 98.4309 22.4446V12.5368ZM109.571 25.4142C108.499 25.4142 107.571 25.1944 106.789 24.7549C106.011 24.3111 105.41 23.6941 104.987 22.9039C104.564 22.1094 104.352 21.1883 104.352 20.1407C104.352 19.0843 104.564 18.161 104.987 17.3708C105.41 16.5763 106.011 15.9593 106.789 15.5198C107.571 15.0759 108.499 14.854 109.571 14.854C110.643 14.854 111.568 15.0759 112.346 15.5198C113.129 15.9593 113.732 16.5763 114.155 17.3708C114.578 18.161 114.79 19.0843 114.79 20.1407C114.79 21.1883 114.578 22.1094 114.155 22.9039C113.732 23.6941 113.129 24.3111 112.346 24.7549C111.568 25.1944 110.643 25.4142 109.571 25.4142ZM109.585 23.2169C110.073 23.2169 110.48 23.0838 110.807 22.8174C111.134 22.5467 111.38 22.1782 111.545 21.7121C111.716 21.246 111.801 20.7155 111.801 20.1207C111.801 19.5259 111.716 18.9955 111.545 18.5294C111.38 18.0633 111.134 17.6949 110.807 17.4241C110.48 17.1533 110.073 17.0179 109.585 17.0179C109.092 17.0179 108.678 17.1533 108.342 17.4241C108.011 17.6949 107.76 18.0633 107.59 18.5294C107.424 18.9955 107.341 19.5259 107.341 20.1207C107.341 20.7155 107.424 21.246 107.59 21.7121C107.76 22.1782 108.011 22.5467 108.342 22.8174C108.678 23.0838 109.092 23.2169 109.585 23.2169ZM120.479 25.2144V11.578H126.057C127.13 11.578 128.043 11.7756 128.798 12.1706C129.553 12.5613 130.128 13.105 130.524 13.8019C130.924 14.4944 131.125 15.2934 131.125 16.199C131.125 17.1045 130.922 17.9035 130.517 18.596C130.112 19.2885 129.525 19.8278 128.757 20.214C127.993 20.6001 127.068 20.7933 125.982 20.7933H122.426V18.4828H125.498C126.074 18.4828 126.548 18.3873 126.92 18.1965C127.298 18.0012 127.579 17.7326 127.763 17.3908C127.951 17.0446 128.046 16.6473 128.046 16.199C128.046 15.7462 127.951 15.3511 127.763 15.0138C127.579 14.672 127.298 14.4079 126.92 14.2214C126.543 14.0305 126.064 13.9351 125.484 13.9351H123.469V25.2144H120.479ZM135.563 11.578V25.2144H132.622V11.578H135.563ZM140.554 25.4075C139.877 25.4075 139.275 25.2943 138.745 25.068C138.216 24.8371 137.797 24.4975 137.489 24.0492C137.185 23.5964 137.033 23.0327 137.033 22.3579C137.033 21.7898 137.141 21.3126 137.358 20.9264C137.574 20.5402 137.869 20.2295 138.241 19.9942C138.614 19.759 139.038 19.5814 139.512 19.4616C139.99 19.3417 140.492 19.2574 141.016 19.2085C141.633 19.1464 142.13 19.0887 142.508 19.0354C142.885 18.9777 143.159 18.8934 143.329 18.7824C143.5 18.6714 143.585 18.5072 143.585 18.2897V18.2497C143.585 17.828 143.447 17.5018 143.17 17.271C142.899 17.0401 142.512 16.9247 142.011 16.9247C141.481 16.9247 141.06 17.0379 140.747 17.2643C140.434 17.4862 140.227 17.7659 140.126 18.1033L137.406 17.8902C137.544 17.2687 137.816 16.7316 138.221 16.2789C138.626 15.8216 139.148 15.471 139.788 15.2268C140.432 14.9783 141.178 14.854 142.024 14.854C142.614 14.854 143.177 14.9206 143.716 15.0537C144.259 15.1869 144.74 15.3933 145.159 15.6729C145.582 15.9526 145.916 16.3121 146.16 16.7516C146.404 17.1866 146.526 17.7082 146.526 18.3163V25.2144H143.736V23.7962H143.654C143.483 24.1158 143.256 24.3977 142.97 24.6418C142.685 24.8815 142.342 25.0701 141.942 25.2078C141.541 25.3409 141.079 25.4075 140.554 25.4075ZM141.396 23.4499C141.829 23.4499 142.211 23.3678 142.542 23.2036C142.874 23.0349 143.134 22.8085 143.322 22.5244C143.511 22.2404 143.605 21.9185 143.605 21.559V20.4736C143.513 20.5313 143.387 20.5847 143.226 20.6334C143.069 20.6778 142.892 20.72 142.694 20.76C142.496 20.7955 142.298 20.8288 142.1 20.8598C141.902 20.8864 141.723 20.9109 141.562 20.933C141.217 20.9819 140.915 21.0596 140.658 21.1661C140.4 21.2727 140.2 21.4169 140.057 21.5989C139.914 21.7765 139.843 21.9984 139.843 22.2648C139.843 22.6509 139.988 22.9461 140.278 23.1503C140.572 23.3501 140.945 23.4499 141.396 23.4499ZM151.359 19.3018V25.2144H148.418V14.9871H151.221V16.7915H151.345C151.581 16.1967 151.974 15.7262 152.526 15.38C153.078 15.0293 153.748 14.854 154.534 14.854C155.271 14.854 155.914 15.0093 156.461 15.32C157.008 15.6308 157.434 16.0747 157.738 16.6517C158.042 17.2243 158.194 17.9079 158.194 18.7025V25.2144H155.253V19.2085C155.258 18.5827 155.091 18.0944 154.756 17.7437C154.42 17.3886 153.957 17.211 153.368 17.211C152.972 17.211 152.623 17.2931 152.319 17.4574C152.02 17.6216 151.785 17.8613 151.615 18.1765C151.449 18.4872 151.364 18.8623 151.359 19.3018ZM164.956 25.4142C163.865 25.4142 162.926 25.2011 162.139 24.7749C161.356 24.3444 160.753 23.7363 160.33 22.9505C159.907 22.1604 159.695 21.226 159.695 20.1474C159.695 19.0954 159.907 18.1721 160.33 17.3775C160.753 16.5829 161.349 15.9637 162.118 15.5198C162.891 15.0759 163.798 14.854 164.838 14.854C165.538 14.854 166.189 14.9627 166.792 15.1802C167.399 15.3933 167.929 15.7151 168.38 16.1457C168.835 16.5763 169.19 17.1178 169.442 17.7703C169.696 18.4184 169.822 19.1775 169.822 20.0475V20.8265H160.868V19.0687H167.054C167.054 18.6603 166.962 18.2986 166.778 17.9834C166.593 17.6682 166.339 17.4219 166.011 17.2443C165.689 17.0623 165.314 16.9713 164.887 16.9713C164.44 16.9713 164.044 17.0712 163.699 17.271C163.358 17.4663 163.091 17.7304 162.898 18.0633C162.705 18.3918 162.606 18.758 162.601 19.1619V20.8332C162.601 21.3393 162.698 21.7765 162.891 22.1449C163.089 22.5133 163.367 22.7974 163.727 22.9971C164.086 23.1969 164.511 23.2968 165.004 23.2968C165.331 23.2968 165.63 23.2524 165.901 23.1636C166.172 23.0748 166.405 22.9417 166.598 22.7642C166.792 22.5866 166.939 22.3691 167.041 22.1116L169.76 22.2847C169.622 22.915 169.339 23.4655 168.911 23.936C168.488 24.4021 167.94 24.7661 167.268 25.0279C166.601 25.2855 165.829 25.4142 164.956 25.4142ZM176.993 14.9871V17.1178H170.607V14.9871H176.993ZM172.057 12.5368H174.997V22.0716C174.997 22.3336 175.039 22.5378 175.122 22.6842C175.205 22.8263 175.32 22.9262 175.467 22.9838C175.62 23.0416 175.795 23.0704 175.992 23.0704C176.13 23.0704 176.268 23.0593 176.406 23.0372C176.544 23.0104 176.65 22.9905 176.724 22.9772L177.186 25.0879C177.039 25.1323 176.832 25.1834 176.565 25.241C176.298 25.3032 175.973 25.3409 175.591 25.3542C174.883 25.3809 174.262 25.2899 173.728 25.0813C173.198 24.8726 172.786 24.5486 172.492 24.1091C172.197 23.6697 172.052 23.1148 172.057 22.4446V12.5368Z" fill="white"/>
</svg>
